<mxfile host="Electron" modified="2023-10-13T09:37:19.207Z" agent="Mozilla/5.0 (Macintosh; Intel Mac OS X 10_15_7) AppleWebKit/537.36 (KHTML, like Gecko) draw.io/22.0.2 Chrome/114.0.5735.289 Electron/25.8.4 Safari/537.36" etag="_dWz_KAWqjvY7WK_Z8-W" version="22.0.2" type="device">
  <diagram name="第 1 页" id="avzKTc8BtQbMLR19Bc7V">
    <mxGraphModel dx="887" dy="674" grid="1" gridSize="10" guides="1" tooltips="1" connect="1" arrows="1" fold="1" page="1" pageScale="1" pageWidth="827" pageHeight="1169" math="0" shadow="0">
      <root>
        <mxCell id="0" />
        <mxCell id="1" parent="0" />
        <mxCell id="0Qx_PZ1EG1VeKn5cWVCa-1" value="Mybatis" style="rounded=0;whiteSpace=wrap;html=1;labelPosition=center;verticalLabelPosition=middle;align=center;verticalAlign=top;fillColor=#d5e8d4;strokeColor=#82b366;" parent="1" vertex="1">
          <mxGeometry x="50" y="110" width="650" height="430" as="geometry" />
        </mxCell>
        <mxCell id="0Qx_PZ1EG1VeKn5cWVCa-5" value="" style="edgeStyle=orthogonalEdgeStyle;rounded=0;orthogonalLoop=1;jettySize=auto;html=1;fontColor=#99FF99;fillColor=#f8cecc;strokeColor=#b85450;" parent="1" source="0Qx_PZ1EG1VeKn5cWVCa-2" target="0Qx_PZ1EG1VeKn5cWVCa-3" edge="1">
          <mxGeometry relative="1" as="geometry">
            <Array as="points">
              <mxPoint x="160" y="190" />
              <mxPoint x="160" y="190" />
            </Array>
          </mxGeometry>
        </mxCell>
        <mxCell id="0Qx_PZ1EG1VeKn5cWVCa-2" value="SqlSession" style="rounded=1;whiteSpace=wrap;html=1;fillColor=#f8cecc;strokeColor=#b85450;" parent="1" vertex="1">
          <mxGeometry x="130" y="140" width="120" height="40" as="geometry" />
        </mxCell>
        <mxCell id="0Qx_PZ1EG1VeKn5cWVCa-6" value="" style="edgeStyle=orthogonalEdgeStyle;rounded=0;orthogonalLoop=1;jettySize=auto;html=1;fillColor=#d5e8d4;strokeColor=#82b366;" parent="1" source="0Qx_PZ1EG1VeKn5cWVCa-3" target="0Qx_PZ1EG1VeKn5cWVCa-2" edge="1">
          <mxGeometry relative="1" as="geometry">
            <Array as="points">
              <mxPoint x="220" y="210" />
              <mxPoint x="220" y="210" />
            </Array>
          </mxGeometry>
        </mxCell>
        <mxCell id="0Qx_PZ1EG1VeKn5cWVCa-9" value="" style="edgeStyle=orthogonalEdgeStyle;rounded=0;orthogonalLoop=1;jettySize=auto;html=1;fillColor=#f8cecc;strokeColor=#b85450;" parent="1" source="0Qx_PZ1EG1VeKn5cWVCa-3" target="0Qx_PZ1EG1VeKn5cWVCa-8" edge="1">
          <mxGeometry relative="1" as="geometry">
            <Array as="points">
              <mxPoint x="160" y="280" />
              <mxPoint x="160" y="280" />
            </Array>
          </mxGeometry>
        </mxCell>
        <mxCell id="0Qx_PZ1EG1VeKn5cWVCa-3" value="Executor" style="rounded=1;whiteSpace=wrap;html=1;fillColor=#f8cecc;strokeColor=#b85450;" parent="1" vertex="1">
          <mxGeometry x="130" y="220" width="120" height="40" as="geometry" />
        </mxCell>
        <mxCell id="0Qx_PZ1EG1VeKn5cWVCa-10" value="" style="edgeStyle=orthogonalEdgeStyle;rounded=0;orthogonalLoop=1;jettySize=auto;html=1;fillColor=#d5e8d4;strokeColor=#82b366;" parent="1" source="0Qx_PZ1EG1VeKn5cWVCa-8" target="0Qx_PZ1EG1VeKn5cWVCa-3" edge="1">
          <mxGeometry relative="1" as="geometry">
            <Array as="points">
              <mxPoint x="220" y="290" />
              <mxPoint x="220" y="290" />
            </Array>
          </mxGeometry>
        </mxCell>
        <mxCell id="0Qx_PZ1EG1VeKn5cWVCa-12" value="" style="edgeStyle=orthogonalEdgeStyle;rounded=0;orthogonalLoop=1;jettySize=auto;html=1;fillColor=#f8cecc;strokeColor=#b85450;dashed=1;" parent="1" source="0Qx_PZ1EG1VeKn5cWVCa-8" target="0Qx_PZ1EG1VeKn5cWVCa-11" edge="1">
          <mxGeometry relative="1" as="geometry">
            <Array as="points">
              <mxPoint x="140" y="350" />
              <mxPoint x="140" y="350" />
            </Array>
          </mxGeometry>
        </mxCell>
        <mxCell id="0Qx_PZ1EG1VeKn5cWVCa-8" value="StatementHandler" style="rounded=1;whiteSpace=wrap;html=1;fillColor=#f8cecc;strokeColor=#b85450;" parent="1" vertex="1">
          <mxGeometry x="130" y="300" width="120" height="40" as="geometry" />
        </mxCell>
        <mxCell id="0Qx_PZ1EG1VeKn5cWVCa-16" value="" style="edgeStyle=orthogonalEdgeStyle;rounded=0;orthogonalLoop=1;jettySize=auto;html=1;dashed=1;fillColor=#f8cecc;strokeColor=#b85450;" parent="1" source="0Qx_PZ1EG1VeKn5cWVCa-11" target="0Qx_PZ1EG1VeKn5cWVCa-15" edge="1">
          <mxGeometry relative="1" as="geometry">
            <Array as="points">
              <mxPoint x="140" y="450" />
              <mxPoint x="140" y="450" />
            </Array>
          </mxGeometry>
        </mxCell>
        <mxCell id="M0abkPljQ--r24kx7aNO-13" style="edgeStyle=orthogonalEdgeStyle;rounded=0;orthogonalLoop=1;jettySize=auto;html=1;exitX=0.25;exitY=1;exitDx=0;exitDy=0;entryX=0.042;entryY=0;entryDx=0;entryDy=0;entryPerimeter=0;dashed=1;fillColor=#f8cecc;strokeColor=#b85450;" edge="1" parent="1" source="0Qx_PZ1EG1VeKn5cWVCa-11" target="M0abkPljQ--r24kx7aNO-5">
          <mxGeometry relative="1" as="geometry" />
        </mxCell>
        <mxCell id="0Qx_PZ1EG1VeKn5cWVCa-11" value="ParameterHandler" style="rounded=1;whiteSpace=wrap;html=1;fillColor=#f8cecc;strokeColor=#b85450;" parent="1" vertex="1">
          <mxGeometry x="80" y="380" width="120" height="40" as="geometry" />
        </mxCell>
        <mxCell id="0Qx_PZ1EG1VeKn5cWVCa-14" value="" style="edgeStyle=orthogonalEdgeStyle;rounded=0;orthogonalLoop=1;jettySize=auto;html=1;fillColor=#d5e8d4;strokeColor=#82b366;dashed=1;" parent="1" source="0Qx_PZ1EG1VeKn5cWVCa-13" target="0Qx_PZ1EG1VeKn5cWVCa-8" edge="1">
          <mxGeometry relative="1" as="geometry">
            <Array as="points">
              <mxPoint x="240" y="350" />
              <mxPoint x="240" y="350" />
            </Array>
          </mxGeometry>
        </mxCell>
        <mxCell id="0Qx_PZ1EG1VeKn5cWVCa-13" value="ResultSetHandler" style="rounded=1;whiteSpace=wrap;html=1;fillColor=#f8cecc;strokeColor=#b85450;" parent="1" vertex="1">
          <mxGeometry x="210" y="380" width="120" height="40" as="geometry" />
        </mxCell>
        <mxCell id="0Qx_PZ1EG1VeKn5cWVCa-17" value="" style="edgeStyle=orthogonalEdgeStyle;rounded=0;orthogonalLoop=1;jettySize=auto;html=1;dashed=1;fillColor=#d5e8d4;strokeColor=#82b366;" parent="1" source="0Qx_PZ1EG1VeKn5cWVCa-15" target="0Qx_PZ1EG1VeKn5cWVCa-13" edge="1">
          <mxGeometry relative="1" as="geometry">
            <Array as="points">
              <mxPoint x="240" y="430" />
              <mxPoint x="240" y="430" />
            </Array>
          </mxGeometry>
        </mxCell>
        <mxCell id="0Qx_PZ1EG1VeKn5cWVCa-15" value="TypeHandler&amp;lt;T&amp;gt;" style="rounded=1;whiteSpace=wrap;html=1;fillColor=#f8cecc;strokeColor=#b85450;" parent="1" vertex="1">
          <mxGeometry x="130" y="460" width="120" height="40" as="geometry" />
        </mxCell>
        <mxCell id="0Qx_PZ1EG1VeKn5cWVCa-19" value="BoundSql" style="rounded=1;whiteSpace=wrap;html=1;fillColor=#fff2cc;strokeColor=#d6b656;" parent="1" vertex="1">
          <mxGeometry x="270" y="300" width="120" height="40" as="geometry" />
        </mxCell>
        <mxCell id="0Qx_PZ1EG1VeKn5cWVCa-20" value="MappedStatement" style="rounded=0;whiteSpace=wrap;html=1;verticalAlign=top;fillColor=#60a917;strokeColor=#2D7600;fontColor=#ffffff;" parent="1" vertex="1">
          <mxGeometry x="414" y="240" width="136" height="130" as="geometry" />
        </mxCell>
        <mxCell id="M0abkPljQ--r24kx7aNO-1" value="JDBC" style="rounded=0;whiteSpace=wrap;html=1;verticalAlign=top;fillColor=#fff2cc;strokeColor=#d6b656;" vertex="1" parent="1">
          <mxGeometry x="50" y="555" width="650" height="185" as="geometry" />
        </mxCell>
        <mxCell id="0Qx_PZ1EG1VeKn5cWVCa-21" value="SqlSource" style="rounded=1;whiteSpace=wrap;html=1;fillColor=#ffe6cc;strokeColor=#d79b00;" parent="1" vertex="1">
          <mxGeometry x="430" y="270" width="102" height="30" as="geometry" />
        </mxCell>
        <mxCell id="0Qx_PZ1EG1VeKn5cWVCa-22" value="ResultMap" style="rounded=1;whiteSpace=wrap;html=1;fillColor=#ffe6cc;strokeColor=#d79b00;" parent="1" vertex="1">
          <mxGeometry x="430" y="320" width="102" height="30" as="geometry" />
        </mxCell>
        <mxCell id="0Qx_PZ1EG1VeKn5cWVCa-35" value="" style="group" parent="1" vertex="1" connectable="0">
          <mxGeometry x="560" y="130" width="120" height="400" as="geometry" />
        </mxCell>
        <mxCell id="0Qx_PZ1EG1VeKn5cWVCa-24" value="Configuration&lt;br&gt;&lt;br&gt;&lt;br&gt;" style="rounded=0;whiteSpace=wrap;html=1;fillColor=#e1d5e7;strokeColor=#9673a6;" parent="0Qx_PZ1EG1VeKn5cWVCa-35" vertex="1">
          <mxGeometry width="120" height="400" as="geometry" />
        </mxCell>
        <mxCell id="0Qx_PZ1EG1VeKn5cWVCa-25" value="MapperRegistry" style="rounded=0;whiteSpace=wrap;html=1;fillColor=#dae8fc;strokeColor=#6c8ebf;" parent="0Qx_PZ1EG1VeKn5cWVCa-35" vertex="1">
          <mxGeometry x="5" y="10" width="110" height="30" as="geometry" />
        </mxCell>
        <mxCell id="0Qx_PZ1EG1VeKn5cWVCa-27" value="InterceptorChain" style="rounded=0;whiteSpace=wrap;html=1;fillColor=#dae8fc;strokeColor=#6c8ebf;" parent="0Qx_PZ1EG1VeKn5cWVCa-35" vertex="1">
          <mxGeometry x="5" y="50" width="110" height="30" as="geometry" />
        </mxCell>
        <mxCell id="0Qx_PZ1EG1VeKn5cWVCa-28" value="TypeHandlerRegistry" style="rounded=0;whiteSpace=wrap;html=1;fillColor=#dae8fc;strokeColor=#6c8ebf;" parent="0Qx_PZ1EG1VeKn5cWVCa-35" vertex="1">
          <mxGeometry x="5" y="85" width="110" height="30" as="geometry" />
        </mxCell>
        <mxCell id="0Qx_PZ1EG1VeKn5cWVCa-29" value="TypeAliasRegistry" style="rounded=0;whiteSpace=wrap;html=1;fillColor=#dae8fc;strokeColor=#6c8ebf;" parent="0Qx_PZ1EG1VeKn5cWVCa-35" vertex="1">
          <mxGeometry x="5" y="120" width="110" height="30" as="geometry" />
        </mxCell>
        <mxCell id="0Qx_PZ1EG1VeKn5cWVCa-30" value="Mapperstatement&lt;br&gt;管理" style="rounded=0;whiteSpace=wrap;html=1;fillColor=#dae8fc;strokeColor=#6c8ebf;" parent="0Qx_PZ1EG1VeKn5cWVCa-35" vertex="1">
          <mxGeometry x="5" y="200" width="110" height="30" as="geometry" />
        </mxCell>
        <mxCell id="0Qx_PZ1EG1VeKn5cWVCa-31" value="Cache&lt;br&gt;管理" style="rounded=0;whiteSpace=wrap;html=1;fillColor=#dae8fc;strokeColor=#6c8ebf;" parent="0Qx_PZ1EG1VeKn5cWVCa-35" vertex="1">
          <mxGeometry x="5" y="240" width="110" height="30" as="geometry" />
        </mxCell>
        <mxCell id="0Qx_PZ1EG1VeKn5cWVCa-32" value="ResultMap&lt;br&gt;管理" style="rounded=0;whiteSpace=wrap;html=1;fillColor=#dae8fc;strokeColor=#6c8ebf;" parent="0Qx_PZ1EG1VeKn5cWVCa-35" vertex="1">
          <mxGeometry x="5" y="280" width="110" height="30" as="geometry" />
        </mxCell>
        <mxCell id="0Qx_PZ1EG1VeKn5cWVCa-33" value="ParameterMap&lt;br&gt;管理" style="rounded=0;whiteSpace=wrap;html=1;fillColor=#dae8fc;strokeColor=#6c8ebf;" parent="0Qx_PZ1EG1VeKn5cWVCa-35" vertex="1">
          <mxGeometry x="5" y="320" width="110" height="30" as="geometry" />
        </mxCell>
        <mxCell id="0Qx_PZ1EG1VeKn5cWVCa-34" value="KeyGenerator&lt;br&gt;管理" style="rounded=0;whiteSpace=wrap;html=1;fillColor=#dae8fc;strokeColor=#6c8ebf;" parent="0Qx_PZ1EG1VeKn5cWVCa-35" vertex="1">
          <mxGeometry x="5" y="360" width="110" height="30" as="geometry" />
        </mxCell>
        <mxCell id="M0abkPljQ--r24kx7aNO-3" value="" style="edgeStyle=orthogonalEdgeStyle;rounded=0;orthogonalLoop=1;jettySize=auto;html=1;fillColor=#d5e8d4;strokeColor=#82b366;dashed=1;" edge="1" parent="1" source="M0abkPljQ--r24kx7aNO-2" target="0Qx_PZ1EG1VeKn5cWVCa-15">
          <mxGeometry relative="1" as="geometry">
            <Array as="points">
              <mxPoint x="230" y="520" />
              <mxPoint x="230" y="520" />
            </Array>
          </mxGeometry>
        </mxCell>
        <mxCell id="M0abkPljQ--r24kx7aNO-4" value="" style="edgeStyle=orthogonalEdgeStyle;rounded=0;orthogonalLoop=1;jettySize=auto;html=1;entryX=0.385;entryY=0.721;entryDx=0;entryDy=0;entryPerimeter=0;dashed=1;fillColor=#d5e8d4;strokeColor=#82b366;" edge="1" parent="1" source="M0abkPljQ--r24kx7aNO-2" target="0Qx_PZ1EG1VeKn5cWVCa-1">
          <mxGeometry relative="1" as="geometry">
            <Array as="points">
              <mxPoint x="300" y="560" />
              <mxPoint x="300" y="560" />
            </Array>
          </mxGeometry>
        </mxCell>
        <mxCell id="M0abkPljQ--r24kx7aNO-2" value="ResultSet" style="rounded=0;whiteSpace=wrap;html=1;" vertex="1" parent="1">
          <mxGeometry x="210" y="570" width="120" height="40" as="geometry" />
        </mxCell>
        <mxCell id="M0abkPljQ--r24kx7aNO-5" value="Statement" style="rounded=0;whiteSpace=wrap;html=1;verticalAlign=top;fillColor=#f8cecc;strokeColor=#b85450;" vertex="1" parent="1">
          <mxGeometry x="90" y="640" width="480" height="80" as="geometry" />
        </mxCell>
        <mxCell id="M0abkPljQ--r24kx7aNO-6" value="PrepareStatement" style="rounded=0;whiteSpace=wrap;html=1;fillColor=#d5e8d4;strokeColor=#82b366;" vertex="1" parent="1">
          <mxGeometry x="110" y="680" width="120" height="30" as="geometry" />
        </mxCell>
        <mxCell id="M0abkPljQ--r24kx7aNO-7" value="Statement" style="rounded=0;whiteSpace=wrap;html=1;fillColor=#d5e8d4;strokeColor=#82b366;" vertex="1" parent="1">
          <mxGeometry x="250" y="680" width="120" height="30" as="geometry" />
        </mxCell>
        <mxCell id="M0abkPljQ--r24kx7aNO-8" value="CallableStatement" style="rounded=0;whiteSpace=wrap;html=1;fillColor=#d5e8d4;strokeColor=#82b366;" vertex="1" parent="1">
          <mxGeometry x="390" y="680" width="120" height="30" as="geometry" />
        </mxCell>
        <mxCell id="M0abkPljQ--r24kx7aNO-10" style="edgeStyle=orthogonalEdgeStyle;rounded=0;orthogonalLoop=1;jettySize=auto;html=1;fillColor=#f8cecc;strokeColor=#b85450;dashed=1;" edge="1" parent="1" source="0Qx_PZ1EG1VeKn5cWVCa-15">
          <mxGeometry relative="1" as="geometry">
            <mxPoint x="140" y="640" as="targetPoint" />
            <Array as="points">
              <mxPoint x="140" y="640" />
            </Array>
          </mxGeometry>
        </mxCell>
      </root>
    </mxGraphModel>
  </diagram>
</mxfile>
